<svg enable-background="new -623 385 32 32" height="28" viewBox="-623 385 32 32" width="28" xmlns="http://www.w3.org/2000/svg"><g transform="translate(4 8)"><path d="m-599 401.5h-24c-.3 0-.5-.2-.5-.5v-16c0-.3.2-.5.5-.5h24c.3 0 .5.2.5.5v16c0 .3-.2.5-.5.5zm-23.5-1h23v-15h-23z"/><path d="m-611 396.5c-.1 0-.2 0-.3-.1l-12-11c-.2-.1-.2-.4-.1-.5.1-.2.3-.3.5-.3h24c.2 0 .4.1.5.3s0 .4-.1.5l-12 11c-.3.1-.4.1-.5.1zm-10.7-11 10.7 9.8 10.7-9.8z"/><path d="m-599 401.5h-24c-.2 0-.4-.1-.5-.3s0-.4.1-.5l8.7-8c.2-.2.5-.2.7 0l2.9 2.7 2.9-2.7c.2-.2.5-.2.7 0l8.7 8c.2.1.2.4.1.5.1.2-.1.3-.3.3zm-22.7-1h21.4l-7.4-6.8-2.9 2.7c-.2.2-.5.2-.7 0l-2.9-2.7z"/></g></svg>