<?xml version="1.0" encoding="utf-8"?>
<!-- Generator: Adobe Illustrator 18.1.1, SVG Export Plug-In . SVG Version: 6.00 Build 0)  -->
<svg version="1.1" id="Layer_1" xmlns="http://www.w3.org/2000/svg" xmlns:xlink="http://www.w3.org/1999/xlink" x="0px" y="0px" width="28px" height="28px" viewBox="-623 385 32 32" enable-background="new -623 385 32 32" xml:space="preserve">
  <g id="Page-1">
    <g id="email">
      <g id="Rectangle-2-_x2B_-Rectangle-2-Copy-_x2B_-Rectangle-2-Copy-2" transform="translate(4.000000, 8.000000)">
        <g id="Rectangle-2">
          <path d="M-599,401.5h-24c-0.3,0-0.5-0.2-0.5-0.5v-16c0-0.3,0.2-0.5,0.5-0.5h24c0.3,0,0.5,0.2,0.5,0.5v16 C-598.5,401.3-598.7,401.5-599,401.5z M-622.5,400.5h23v-15h-23V400.5z"/>
        </g>
        <g id="Rectangle-2-Copy">
          <path d="M-611,396.5c-0.1,0-0.2,0-0.3-0.1l-12-11c-0.2-0.1-0.2-0.4-0.1-0.5c0.1-0.2,0.3-0.3,0.5-0.3h24c0.2,0,0.4,0.1,0.5,0.3 c0.1,0.2,0,0.4-0.1,0.5l-12,11C-610.8,396.5-610.9,396.5-611,396.5z M-621.7,385.5l10.7,9.8l10.7-9.8H-621.7z"/>
        </g>
        <g id="Rectangle-2-Copy-2">
          <path d="M-599,401.5h-24c-0.2,0-0.4-0.1-0.5-0.3c-0.1-0.2,0-0.4,0.1-0.5l8.7-8c0.2-0.2,0.5-0.2,0.7,0l2.9,2.7l2.9-2.7 c0.2-0.2,0.5-0.2,0.7,0l8.7,8c0.2,0.1,0.2,0.4,0.1,0.5C-598.6,401.4-598.8,401.5-599,401.5z M-621.7,400.5h21.4l-7.4-6.8 l-2.9,2.7c-0.2,0.2-0.5,0.2-0.7,0l-2.9-2.7L-621.7,400.5z"/>
        </g>
      </g>
    </g>
  </g>
</svg>
