<svg height="40" viewBox="0 0 132 40" width="132" xmlns="http://www.w3.org/2000/svg"><g fill="none"><path d="m15.442 1.023c7.907 0 12.279 4.186 13.674 10.698h-7.442c-.65-3.07-2.604-4.93-6.232-4.93-5.023 0-7.814 3.72-7.814 10.14 0 6.418 2.79 10.232 7.814 10.232 4 0 6.418-2.233 6.418-5.023v-.559h-4.744v-5.301h12.372v16.186h-5.767l-.465-3.72c-1.116 2.51-4.837 4.185-8.372 4.185-9.117-.001-14.884-6.605-14.884-16.001 0-9.395 6.047-15.907 15.442-15.907zm34.605 15.721c-.771-.108-1.548-.17-2.326-.186-3.256 0-5.768 1.954-5.768 6.047v9.674h-7.162v-22.046h7.162v4.65c1.117-3.255 3.535-5.023 6.605-5.023a4.353 4.353 0 0 1 1.582.187zm13.767 16.186c-6.977 0-11.814-4.372-11.814-11.535 0-7.162 4.837-11.628 11.814-11.628s11.72 4.373 11.72 11.535c0 7.163-4.836 11.628-11.72 11.628zm0-5.302c2.977 0 4.465-2.419 4.465-6.419s-1.488-6.325-4.465-6.325-4.558 2.418-4.558 6.418 1.581 6.326 4.558 6.326z" fill="#2f2f2f"/><path d="m127.256 20.465c0-.093 0-.093-.093-.093-1.675-1.395-3.442-2.79-5.21-4.279-1.767-1.488-3.441-2.977-5.023-4.279a.93.93 0 0 1 .093-.837l.837-.558a3.6 3.6 0 0 1 2.42 0 26.81 26.81 0 0 1 6.139 4c1.9 1.7 3.643 3.568 5.209 5.581a1.99 1.99 0 0 1 .279 1.767 2.707 2.707 0 0 1 -1.302 1.582 54.177 54.177 0 0 0 -6.14 4.093c-1.953 1.488-4 2.884-5.953 4.279-.186.093-.465.186-.652.279l-.837.28c-.279 0-.465 0-.558-.094-.093-.093-.093-.372.093-.837a27.08 27.08 0 0 1 2.419-3.07c.837-.93 1.674-1.767 2.604-2.698.93-.93 1.768-1.674 2.698-2.511s1.954-1.675 2.977-2.605zm-30.791 17.861c.199-.64.354-1.293.465-1.954l.558-1.953c.93-2.605 2.14-5.396 3.442-8.28 1.303-2.883 2.698-5.86 4.186-8.744a121.763 121.763 0 0 1 4.744-8.372c1.675-2.697 3.256-5.116 4.838-7.256.221-.301.47-.581.744-.837a3.34 3.34 0 0 1 .93-.65c.245-.176.537-.273.837-.28a.512.512 0 0 1 .465.28c.093.185.186.278.186.464v.558c-.093.186-.093.372-.186.465s-.093.28-.186.466a335.286 335.286 0 0 0 -4.093 8.186c-1.395 2.883-2.976 5.86-4.558 8.93-1.581 3.07-3.07 5.953-4.651 8.837a411.367 411.367 0 0 1 -4.465 7.907c-.28.465-.651.93-.93 1.395-.289.473-.632.91-1.024 1.303-.465.558-.837.837-1.116.65-.465 0-.465-.371-.186-1.115z" fill="#ff4665"/><path d="m100.28 21.395-2.7-11.162h-6.51l-3.535 14.883h-.093l-3.907-14.883h-7.163l6.884 22.046h7.256l3.72-14.326h.094l2.79 10.791z" fill="#2f2f2f"/></g></svg>