<svg fill="none" height="147" viewBox="0 0 149 147" width="149" xmlns="http://www.w3.org/2000/svg"><ellipse cx="74.295" cy="73.5" fill="#fff" rx="74.295" ry="73.5"/><g fill="#2f2f2f"><path d="m28.831 58.1077c7.0822 0 10.9982 3.7092 12.248 9.4792h-6.6656c-.5832-2.7201-2.3329-4.3687-5.5824-4.3687-4.4992 0-6.9988 3.2971-6.9988 8.9846 0 5.6876 2.4996 9.0671 6.9988 9.0671 3.5828 0 5.7491-1.9783 5.7491-4.4511v-.4946h-4.2493v-4.6984h11.0815v14.3425h-5.1658l-.4166-3.2971c-.9999 2.2255-4.3327 3.7092-7.4988 3.7092-8.1653 0-13.3311-5.8523-13.3311-14.1776 0-8.3252 5.4158-14.0951 13.831-14.0951z"/><path d="m59.8255 72.0382c-.6904-.0959-1.3859-.1509-2.083-.1649-2.9161 0-5.1658 1.731-5.1658 5.3579v8.5725h-6.4156v-19.5355h6.4156v4.1214c.9999-2.8849 3.1662-4.4511 5.9157-4.4511.4784-.0316.9586.0243 1.4164.1649z"/><path clip-rule="evenodd" d="m61.5762 76.1594c0 6.347 4.3326 10.2211 10.5815 10.2211 6.1657 0 10.4983-3.9565 10.4983-10.3035 0-6.3469-4.2493-10.221-10.4983-10.221-6.2489 0-10.5815 3.9565-10.5815 10.3034zm14.5815-.165c0 3.5444-1.3331 5.6875-3.9993 5.6875-2.6663 0-4.0827-2.0606-4.0827-5.605s1.4164-5.6876 4.0827-5.6876c2.6662 0 3.9993 2.0607 3.9993 5.6051z" fill-rule="evenodd"/></g><path d="m128.981 75.3349c0-.0824 0-.0824-.084-.0824-1.5-1.2365-3.083-2.4729-4.666-3.7917-1.583-1.3189-3.083-2.6377-4.499-3.7917-.093-.2463-.062-.5219.083-.7419l.75-.4945c.701-.2472 1.466-.2472 2.167 0 1.988.9269 3.838 2.1195 5.499 3.5444 1.702 1.5068 3.263 3.162 4.666 4.9457.329.4534.421 1.0343.249 1.5661-.188.6002-.607 1.1034-1.166 1.4013-1.914 1.0839-3.751 2.2956-5.499 3.6268-1.75 1.3188-3.583 2.5552-5.333 3.7917-.166.0824-.416.1648-.583.2472l-.75.2473c-.25 0-.416 0-.5-.0824-.083-.0824-.083-.3297.084-.7418.655-.9572 1.379-1.8663 2.166-2.7202.75-.8242 1.5-1.5661 2.333-2.3904s1.583-1.4837 2.416-2.2255c.833-.7419 1.75-1.4837 2.667-2.308z" fill="#ff4665"/><path d="m101.403 91.1613c.178-.5671.317-1.1454.417-1.731l.5-1.731c.833-2.308 1.916-4.7808 3.082-7.3361 1.167-2.5552 2.417-5.1929 3.75-7.7482 1.333-2.5552 2.749-5.0281 4.249-7.4185s2.916-4.5335 4.333-6.4294c.198-.2672.421-.5156.666-.7418.243-.238.524-.4331.833-.577.22-.1551.481-.2412.75-.2473.175-.0032.337.0928.417.2473.083.1648.166.2473.166.4121v.4946c-.083.1649-.083.3297-.166.4121-.083.0825-.083.2473-.167.4122-1.166 2.2255-2.416 4.6984-3.666 7.2536-1.25 2.5553-2.666 5.193-4.083 7.9131-1.416 2.7201-2.749 5.2754-4.165 7.8307-1.417 2.5552-2.75 4.8632-4 7.0063-.25.4122-.583.8243-.833 1.2364-.258.4191-.566.8065-.917 1.154-.416.4946-.749.7419-.999.577-.417 0-.417-.3297-.167-.9891z" fill="#ff4665"/><path d="m104.818 76.1594-2.416-9.8913h-5.8323l-3.1661 13.1884h-.0833l-3.4994-13.1884h-6.4156l6.1656 19.5354h6.4989l3.3328-12.6939h.0833l2.5001 9.5616z" fill="#2f2f2f"/></svg>