<svg fill="#fff" height="24" viewBox="0 0 24 24" width="24" xmlns="http://www.w3.org/2000/svg"><g fill-rule="evenodd"><path d="m11.9810941.03781182c-3.25386438 0-3.66186438.01370678-4.93974618.07210503-1.27530853.0582407-2.1462407.26074398-2.90825383.55688403-.78790372.30617067-1.45607002.7158512-2.12213567 1.38191684-.66606564.66606565-1.07574617 1.33428447-1.38186433 2.12213568-.29629759.76211815-.49880087 1.63305032-.55693654 2.90830634-.05834573 1.27788184-.07210503 1.68582934-.07210503 4.93969366 0 3.2539694.0137593 3.6619169.07210503 4.9397987.05813567 1.275256.26063895 2.1461882.55693654 2.9083063.30611816.7878513.71579869 1.4560701 1.38186433 2.1221357.66606565.6660656 1.33423195 1.0757462 2.12213567 1.3819168.76201313.2961401 1.6329453.4986434 2.90825383.5568841 1.2778818.0582932 1.6858818.072105 4.93974618.072105 3.2538643 0 3.6619168-.0138118 4.9397987-.072105 1.275256-.0582407 2.1461882-.260744 2.9082538-.5568841.7879037-.3061706 1.4560175-.7158512 2.1220831-1.3819168.6660657-.6660656 1.0757463-1.3342844 1.3819169-2.1221357.2962451-.7621181.4987484-1.6330503.5569365-2.9083063.0583458-1.2778818.0720526-1.6858293.0720526-4.9397987 0-3.25386432-.0137068-3.66181182-.0720526-4.93969366-.0581881-1.27525602-.2606914-2.14618819-.5569365-2.90830634-.3061706-.78785121-.7158512-1.45607003-1.3819169-2.12213568-.6660656-.66606564-1.3341794-1.07574617-2.1220831-1.38191684-.7620656-.29614005-1.6329978-.49864333-2.9082538-.55688403-1.2778819-.05839825-1.6859344-.07210503-4.9397987-.07210503m0 2.1587396c3.1990897 0 3.5779431.01218381 4.841383.06979431 1.1681225.05330416 1.8025207.24856018 2.2247001.41256893.5592999.21736543.9584246.47700657 1.3776105.89624508.4193436.41929102.6789847.81836323.8962452 1.3776105.1640087.42217943.3592647 1.0566302.4125689 2.22470022.0576105 1.26343979.0698468 1.64229322.0698468 4.84138294 0 3.1991948-.0122363 3.5780481-.0698468 4.8413829-.0533042 1.1681751-.2485602 1.8026259-.4125689 2.2248053-.2172605.5591947-.4769016.9583195-.8962452 1.3776105-.4191859.4192385-.8183106.6788797-1.3776105.8961925-.4221794.1640613-1.0565776.3593173-2.2247001.4125165-1.2632298.0577155-1.6420307.0698468-4.841383.0698468-3.19935228 0-3.5781532-.0121313-4.84138294-.0698468-1.16807002-.0531992-1.80252079-.2484552-2.22470022-.4125165-.55924726-.2173128-.95837199-.476954-1.3776105-.8961925-.41918599-.419291-.67882714-.8184158-.89619256-1.3776105-.16406127-.4221794-.35926477-1.0566302-.41262144-2.2248053-.05755799-1.2633348-.06979431-1.6421881-.06979431-4.8413829 0-3.19908972.01223632-3.57794315.06979431-4.84138294.05335667-1.16807002.24856017-1.80252079.41262144-2.22470022.21736542-.55924727.47700657-.95831948.89619256-1.3776105.41923851-.41923851.81836324-.67887965 1.3776105-.89624508.42217943-.16400875 1.0566302-.35926477 2.22470022-.41256893 1.26343981-.0576105 1.64229324-.06979431 4.84138294-.06979431"/><path d="m11.9810941 16.0125689c-2.20563677 0-3.99371552-1.7880262-3.99371552-3.9937155 0-2.2056368 1.78807875-3.99366305 3.99371552-3.99366305 2.2056893 0 3.9937156 1.78802625 3.9937156 3.99366305 0 2.2056893-1.7880263 3.9937155-3.9937156 3.9937155m0-10.14611814c-3.39786438 0-6.15240263 2.75459081-6.15240263 6.15240264 0 3.3979694 2.75453825 6.1524552 6.15240263 6.1524552 3.3978643 0 6.1524026-2.7544858 6.1524026-6.1524552 0-3.39781183-2.7545383-6.15240264-6.1524026-6.15240264"/><path d="m19.8143895 5.6233523c0 .79399562-.6436936 1.43774179-1.4377418 1.43774179-.7939956 0-1.4377418-.64374617-1.4377418-1.43774179 0-.79404814.6437462-1.4377418 1.4377418-1.4377418.7940482 0 1.4377418.64369366 1.4377418 1.4377418"/></g></svg>