<svg enable-background="new 0 0 16 16" height="28" viewBox="0 0 16 16" width="26" xmlns="http://www.w3.org/2000/svg"><g clip-rule="evenodd" fill-rule="evenodd"><path d="m5.2 7.3-2.9 4v2.7h11.4v-2.6l-2.8-4h-5.7zm2.7 5.1c-1.2 0-2.1-1-2-2.1 0-1.2 1-2.1 2.1-2 1.2 0 2.1 1 2 2.1 0 1.2-1 2.1-2.1 2z"/><path d="m14.1 3.5c-.7-.4-2.3-1.4-6.1-1.4-3.3 0-6 1.3-6.2 1.4-1.2.4-1.9 2.1-1.5 3.2.3 1.1 1.3.8 2.5.5 1.2-.2 2.2-.4 1.9-1.5-.2-.6-.7-1.1-1.2-1.4 1-.4 2.5-.7 4.6-.7 2 0 3.5.3 4.5.7-.6.3-1.1.7-1.2 1.3-.4 1.2.6 1.4 1.8 1.6 1.2.3 2.2.6 2.5-.5.4-1.1-.5-2.6-1.6-3.2z"/></g></svg>