<svg fill="#fff" height="30" viewBox="3 3 26 26" width="32" xmlns="http://www.w3.org/2000/svg"><path d="m27.3401734 6.35361475c-.9512396.55602319-2.0064836.96004004-3.1281304 1.17764911-.8968374-.9424393-2.1768908-1.53126386-3.5937499-1.53126386-2.7185134 0-4.9234053 2.17049052-4.9234053 4.8474022 0 .3800158.0440018.7488312.1264052 1.104046-4.0921706-.2024084-7.72032196-2.13208891-10.14922326-5.0642112-.42321765.71522983-.66722783 1.54806457-.66722783 2.43690164 0 1.68087006.87123633 3.16493196 2.19129139 4.03376826-.80643363-.0256011-1.56646533-.2432102-2.23049303-.6056253v.0608025c0 2.348098 1.69767081 4.3073797 3.95056477 4.7537983-.41361725.1104046-.84803537.1696071-1.29845416.1696071-.31681321 0-.62482606-.0304013-.92643864-.0872037.6280262 1.9248803 2.44570201 3.3273388 4.60019186 3.3665405-1.6856703 1.3000542-3.80815882 2.0752865-6.11625508 2.0752865-.39841662 0-.7888329-.023201-1.17524902-.0680028 2.18089096 1.3752573 4.76979893 2.1768908 7.5499149 2.1768908 9.0579778 0 14.0101843-7.385108 14.0101843-13.7909752 0-.2096088-.0032001-.4200175-.0128005-.6272262.96084-.6832285 1.7968749-1.53686407 2.4561024-2.50970464-.8824368.38641612-1.8312764.64562693-2.828118.76323183 1.0168425-.59922499 1.796075-1.5488646 2.1648903-2.68171184z" fill-rule="evenodd"/></svg>